<svg width="101" height="47" viewBox="0 0 101 47" fill="none" xmlns="http://www.w3.org/2000/svg">
<path d="M0.926758 10.3983C0.926758 10.3175 0.974221 10.277 1.06915 10.277C1.1922 10.277 1.38733 10.3561 1.65453 10.5144C4.13669 12.0472 7.35893 12.8137 11.3212 12.8137C13.7472 12.8137 16.1115 12.3936 18.4144 11.5533C18.8187 11.4021 19.2371 11.156 19.6695 10.815C20.0281 10.4845 20.392 10.1575 20.7612 9.83405L20.8034 9.77076C20.8034 9.66177 20.5801 9.57563 20.1336 9.51235C19.8875 9.45961 19.6273 9.4227 19.3531 9.4016C19.1808 9.37348 18.9875 9.28382 18.773 9.13264C18.5339 8.98849 18.4074 8.83028 18.3933 8.65801V8.24666C18.3933 7.56811 18.6974 6.82803 19.3057 6.02642C19.9139 5.22482 20.5344 4.76249 21.1673 4.63944C21.5083 4.78359 21.6788 5.01036 21.6788 5.31975C21.6788 5.45686 21.6419 5.65199 21.5681 5.90513C21.4767 6.17585 21.3624 6.32351 21.2253 6.34812C20.944 6.05982 20.7594 5.91568 20.6715 5.91568C20.443 5.91568 20.0914 6.18112 19.6168 6.71201C19.1457 7.23938 18.9101 7.62436 18.9101 7.86695C18.9101 7.94781 18.9224 7.99879 18.947 8.01989C19.2037 8.19216 19.441 8.29236 19.659 8.32049C20.3692 8.42245 20.7436 8.48046 20.7823 8.49452C21.2147 8.62461 21.431 8.89884 21.431 9.31722C21.431 9.98523 21.1356 10.6444 20.545 11.2949C20.0246 11.8328 19.4199 12.2424 18.7308 12.5236C17.6479 12.9491 16.4262 13.3059 15.0656 13.5942C13.6487 13.8966 12.3936 14.0477 11.3002 14.0477C8.3539 14.0477 6.03523 13.7225 4.34412 13.0721C3.9609 12.8998 3.72183 12.7926 3.6269 12.7504C2.98702 12.318 2.47723 11.9576 2.09752 11.6693C1.31701 11.0013 0.926758 10.5776 0.926758 10.3983Z" fill="#417F56"/>
<path d="M22.5121 1.43302C22.6 0.863459 22.7406 0.499572 22.934 0.341361C22.9656 0.376519 22.992 0.401129 23.0131 0.415193C23.1045 0.90389 23.2135 1.69495 23.34 2.78836C23.4666 3.87827 23.5721 4.85918 23.6565 5.7311C23.7444 6.60302 23.7883 7.06359 23.7883 7.11281C23.7883 7.21477 23.7619 7.3765 23.7092 7.59799C23.66 7.81597 23.5563 7.96364 23.3981 8.04098C23.2855 7.14797 23.173 6.26023 23.0605 5.37776C22.9515 4.49529 22.832 3.62688 22.7019 2.77254C22.5754 1.91469 22.5121 1.46818 22.5121 1.43302Z" fill="#417F56"/>
<path d="M27.3006 6.94932C27.3006 6.66103 27.4254 6.19694 27.675 5.55706C27.9493 4.93125 28.1848 4.50584 28.3817 4.28083C28.8493 4.52693 29.1833 4.74667 29.3837 4.94004C29.658 5.2213 29.7951 5.58519 29.7951 6.0317C29.7951 6.8544 29.5138 7.44154 28.9513 7.79312C28.9091 7.86344 28.7825 7.91793 28.5716 7.9566C28.3641 7.99176 28.2024 8.00934 28.0864 8.00934C27.8368 8.00934 27.6364 7.89332 27.4852 7.66128C27.3621 7.44681 27.3006 7.20949 27.3006 6.94932ZM27.9598 6.46414C27.9598 6.54501 28.0073 6.62939 28.1022 6.71728C28.2006 6.80166 28.278 6.84385 28.3342 6.84385H28.4977C28.8423 6.84385 29.0655 6.77178 29.1675 6.62763C29.1675 6.36746 29.0778 6.13893 28.8985 5.94205C28.7192 5.74164 28.5171 5.62035 28.2921 5.57816C28.0706 5.96138 27.9598 6.25671 27.9598 6.46414Z" fill="#417F56"/>
<path d="M30.0851 11.2158C30.0851 11.1454 30.3418 11.0382 30.8551 10.8941C31.625 10.6409 32.1542 10.4282 32.4425 10.2559C32.9804 9.93952 33.3478 9.57563 33.5447 9.16428C33.5798 9.06233 33.5974 9.00432 33.5974 8.99025C33.5974 8.54375 33.557 8.17986 33.4761 7.89859C33.4339 7.77906 33.2687 7.43451 32.9804 6.86495C33.0261 6.29538 33.1052 5.95259 33.2177 5.83657L33.4339 5.96841C33.6378 6.28484 33.7539 6.46063 33.782 6.49579C33.9121 6.63993 34.0914 6.74541 34.3199 6.81221C34.6012 6.92471 34.7822 6.96339 34.8631 6.92823V8.01989C34.5889 8.03395 34.3182 8.00231 34.051 7.92496V8.42069C34.051 9.07463 33.8629 9.68638 33.4867 10.2559C33.114 10.8255 32.6323 11.2316 32.0417 11.4742C30.7373 11.5128 30.0851 11.4267 30.0851 11.2158Z" fill="#417F56"/>
<path d="M34.6522 6.92823C34.8315 6.93526 35.0934 6.86319 35.4379 6.71201C35.7825 6.56083 35.9882 6.48524 36.055 6.48524C36.1851 6.48524 36.4101 6.55907 36.73 6.70673C37.0499 6.8544 37.3066 6.92823 37.5 6.92823V8.01989C37.2785 8.01989 37.0113 7.93903 36.6984 7.7773C36.3855 7.61557 36.171 7.53471 36.055 7.53471C36.0022 7.53471 35.8212 7.61557 35.5118 7.7773C35.2024 7.93903 34.9475 8.01989 34.7471 8.01989H34.6522V6.92823ZM36.1393 9.81822C36.3046 9.33656 36.4558 9.07112 36.5929 9.02189C36.7159 9.08518 36.8495 9.16428 36.9937 9.25921C37.1449 9.38227 37.2486 9.49301 37.3048 9.59146C37.1958 10.147 37.0412 10.4247 36.8408 10.4247C36.7669 10.4247 36.6333 10.3491 36.4399 10.1979C36.2888 10.0397 36.1886 9.91315 36.1393 9.81822ZM34.8737 10.3034C34.8737 10.1382 35.0037 9.8692 35.2639 9.49653C35.6612 9.77076 35.9161 9.96413 36.0286 10.0766V10.1136C36.0286 10.2401 35.9934 10.3948 35.9231 10.5776C35.8423 10.771 35.7632 10.8677 35.6858 10.8677C35.5979 10.8677 35.4397 10.7939 35.2112 10.6462C34.9862 10.4985 34.8737 10.3843 34.8737 10.3034Z" fill="#417F56"/>
<path d="M37.2626 6.92823C37.8322 6.92823 38.4422 6.85616 39.0926 6.71201C39.7958 6.5327 40.3777 6.31296 40.8382 6.05279C39.9382 5.75043 39.4284 5.59925 39.3088 5.59925C39.1577 5.59925 38.9221 5.65199 38.6022 5.75747C38.2857 5.86294 38.0414 5.91568 37.8691 5.91568C38.0414 5.31096 38.1434 4.99629 38.175 4.97168C38.2664 4.79941 38.4967 4.61658 38.8659 4.42322C38.9924 4.3529 39.1682 4.31774 39.3932 4.31774C39.4882 4.31774 39.8767 4.4654 40.5587 4.76073C41.3146 5.09825 41.7682 5.29162 41.9193 5.34084C42.7034 5.57992 43.4487 5.69945 44.1554 5.69945C44.2222 5.75571 44.2591 5.80141 44.2661 5.83657C44.2661 5.96666 44.1747 6.22331 43.9919 6.60653H43.8126C43.3344 6.60653 42.9741 6.56962 42.7315 6.49579L42.6998 6.64872L42.7315 6.8333C42.8756 6.97745 43.0883 7.04953 43.3696 7.04953C43.7915 7.04953 44.187 7.00909 44.5562 6.92823V8.01989L43.4012 8.04098C43.12 8.04802 42.8879 7.9566 42.7051 7.76675C42.5258 7.5769 42.4362 7.34134 42.4362 7.06007C42.4362 7.01437 42.4432 6.94757 42.4573 6.85967C42.4748 6.76826 42.4836 6.69794 42.4836 6.64872V6.49579C42.1496 6.49579 41.7594 6.57138 41.3129 6.72256C40.7011 6.94757 40.223 7.14269 39.8784 7.30794C39.2034 7.58217 38.7973 7.73687 38.6602 7.77202C38.1996 7.93727 37.7742 8.01989 37.3839 8.01989H37.2626V6.92823ZM39.947 9.8024C40.1052 9.24691 40.2704 8.95509 40.4427 8.92697C40.5517 8.94103 40.6958 8.99904 40.8751 9.101C41.1002 9.24515 41.2127 9.3682 41.2127 9.47016C41.2127 9.54751 41.1757 9.68287 41.1019 9.87624C41.0316 10.052 40.956 10.1751 40.8751 10.2454H40.8224C40.6853 10.2454 40.52 10.1979 40.3267 10.103C40.0735 10.0257 39.947 9.92546 39.947 9.8024Z" fill="#417F56"/>
<path d="M44.1079 3.51086C44.2661 2.95537 44.4314 2.66355 44.6037 2.63543C44.7126 2.64949 44.8568 2.7075 45.0361 2.80946C45.2611 2.95361 45.3736 3.07666 45.3736 3.17862C45.3736 3.25597 45.3367 3.39133 45.2629 3.5847C45.1926 3.76049 45.117 3.88354 45.0361 3.95386H44.9834C44.8462 3.95386 44.681 3.90639 44.4876 3.81146C44.2345 3.73412 44.1079 3.63392 44.1079 3.51086ZM44.3769 6.92823C44.8656 6.93526 45.1416 6.83154 45.2049 6.61708C45.1838 6.52919 45.0976 6.36394 44.9464 6.12135C44.8164 5.91743 44.7408 5.74692 44.7197 5.6098C44.8005 5.38127 44.8972 5.12638 45.0097 4.84511H45.0572C45.2154 4.84511 45.3666 5.07188 45.5107 5.52542C45.6619 5.92271 45.7375 6.23562 45.7375 6.46414C45.7375 6.95987 45.6584 7.33079 45.5002 7.5769C45.3103 7.87222 44.9851 8.01989 44.5246 8.01989H44.3769V6.92823Z" fill="#417F56"/>
<path d="M45.3736 10.2243C46.337 10.1645 46.9048 10.1136 47.077 10.0714C47.5868 9.91315 48.0843 9.59849 48.5695 9.12737C49.0582 8.65625 49.3887 8.16052 49.5609 7.64018C49.3957 7.35189 49.2375 7.06886 49.0863 6.79111C48.8402 6.32703 48.7172 6.02291 48.7172 5.87876L48.7541 5.76274C48.7681 5.73461 48.8138 5.61859 48.8912 5.41467C48.951 5.23537 49.009 5.14571 49.0652 5.14571C49.2305 5.14571 49.4256 5.38655 49.6506 5.86821C49.8791 6.28659 49.9934 6.60126 49.9934 6.81221C49.9934 8.21502 49.568 9.34535 48.7172 10.2032C48.3164 10.5899 47.9032 10.7833 47.4778 10.7833C47.2247 10.7833 46.5831 10.6937 45.5529 10.5144C45.5248 10.4933 45.465 10.4282 45.3736 10.3192V10.2243ZM47.7151 4.00132C47.8734 3.44582 48.0386 3.15401 48.2109 3.12588C48.3199 3.13995 48.464 3.19796 48.6433 3.29991C48.8683 3.44406 48.9808 3.56712 48.9808 3.66907C48.9808 3.74642 48.9439 3.88178 48.8701 4.07515C48.7998 4.25094 48.7242 4.37399 48.6433 4.44431H48.5906C48.4535 4.44431 48.2882 4.39685 48.0949 4.30192C47.8417 4.22457 47.7151 4.12437 47.7151 4.00132Z" fill="#417F56"/>
<path d="M38.0115 10.3983C38.0115 10.3175 38.059 10.277 38.1539 10.277C38.277 10.277 38.4721 10.3561 38.7393 10.5144C41.2215 12.0472 44.4437 12.8137 48.406 12.8137C50.8319 12.8137 53.1963 12.3936 55.4991 11.5533C55.9035 11.4021 56.3218 11.156 56.7543 10.815C57.1129 10.4845 57.4768 10.1575 57.846 9.83405L57.8881 9.77076C57.8881 9.66177 57.6649 9.57563 57.2184 9.51235C56.9723 9.45961 56.7121 9.4227 56.4379 9.4016C56.2656 9.37348 56.0722 9.28382 55.8578 9.13264C55.6187 8.98849 55.4921 8.83028 55.4781 8.65801V8.24666C55.4781 7.56811 55.7822 6.82803 56.3904 6.02642C56.9986 5.22482 57.6192 4.76249 58.252 4.63944C58.5931 4.78359 58.7636 5.01036 58.7636 5.31975C58.7636 5.45686 58.7267 5.65199 58.6528 5.90513C58.5614 6.17585 58.4472 6.32351 58.31 6.34812C58.0288 6.05982 57.8442 5.91568 57.7563 5.91568C57.5278 5.91568 57.1762 6.18112 56.7016 6.71201C56.2304 7.23938 55.9949 7.62436 55.9949 7.86695C55.9949 7.94781 56.0072 7.99879 56.0318 8.01989C56.2884 8.19216 56.5258 8.29236 56.7437 8.32049C57.4539 8.42245 57.8284 8.48046 57.867 8.49452C58.2995 8.62461 58.5157 8.89884 58.5157 9.31722C58.5157 9.98523 58.2204 10.6444 57.6297 11.2949C57.1094 11.8328 56.5047 12.2424 55.8156 12.5236C54.7327 12.9491 53.511 13.3059 52.1503 13.5942C50.7335 13.8966 49.4783 14.0477 48.3849 14.0477C45.4387 14.0477 43.12 13.7225 41.4289 13.0721C41.0457 12.8998 40.8066 12.7926 40.7117 12.7504C40.0718 12.318 39.562 11.9576 39.1823 11.6693C38.4018 11.0013 38.0115 10.5776 38.0115 10.3983Z" fill="#417F56"/>
<path d="M59.3595 1.35391C59.4615 0.780837 59.5335 0.422224 59.5757 0.278076C59.6707 0.362456 59.7357 0.513635 59.7709 0.731616C59.8166 0.830058 59.85 0.98827 59.8711 1.20625C60.2297 3.83256 60.4125 5.20373 60.4195 5.31975C60.5215 6.00533 60.6006 6.39383 60.6568 6.48524C60.8151 6.78057 61.1174 6.92823 61.5639 6.92823V8.01989C60.9311 8.01989 60.5461 7.89684 60.409 7.65073C60.3 7.49955 60.1892 7.155 60.0767 6.61708C60.0451 6.37801 59.9941 6.00709 59.9238 5.50433C59.6707 3.37375 59.4826 1.99028 59.3595 1.35391Z" fill="#417F56"/>
<path d="M61.3582 6.92823C61.643 6.92823 61.963 6.88252 62.3181 6.79111C62.7435 6.68916 63.0423 6.57313 63.2146 6.44305C63.0283 6.03873 62.9351 5.81196 62.9351 5.76274C62.9351 5.60453 63.0072 5.41292 63.1513 5.1879C63.3025 4.92422 63.3921 4.7414 63.4203 4.63944C63.3183 4.57615 63.2673 4.46365 63.2673 4.30192C63.2673 4.13668 63.3183 3.95034 63.4203 3.74291C63.5187 3.4968 63.6365 3.37375 63.7736 3.37375C64.2061 3.37375 64.7071 3.70599 65.2766 4.37048C65.7302 4.8873 65.9675 5.15978 65.9886 5.1879C66.2839 5.58519 66.4316 5.92447 66.4316 6.20573C66.4316 6.33582 66.298 6.61708 66.0308 7.04953C65.9534 7.14797 65.8128 7.19719 65.6089 7.19719C64.9198 7.19719 64.4029 7.11105 64.0584 6.93878C63.647 7.16379 63.2392 7.38704 62.8349 7.60854C62.2583 7.88277 61.7977 8.01989 61.4532 8.01989H61.3582V6.92823ZM64.5752 6.23737C65.2151 6.40262 65.6001 6.48524 65.7302 6.48524C65.8251 6.48524 65.8725 6.45008 65.8725 6.37976C65.8725 6.23562 65.7091 5.9983 65.3821 5.66781C65.1465 5.41467 64.9127 5.21251 64.6807 5.06134C64.7405 5.44807 64.7053 5.84009 64.5752 6.23737ZM63.2673 5.78383C63.2673 5.8647 63.2814 5.90865 63.3095 5.91568C63.5275 6.03521 63.7472 6.08092 63.9687 6.05279C64.2078 5.89458 64.3273 5.72934 64.3273 5.55706C64.3273 5.41292 64.2904 5.2758 64.2166 5.14571C64.1393 5.02266 64.0391 4.96113 63.916 4.96113C63.807 4.96113 63.6716 5.07012 63.5099 5.2881C63.3482 5.50257 63.2673 5.66781 63.2673 5.78383Z" fill="#417F56"/>
<path d="M52.6355 10.2032C52.6355 10.1505 52.676 10.1241 52.7568 10.1241C52.8588 10.1241 53.0785 10.2155 53.416 10.3983C55.2794 11.3406 56.8773 11.9734 58.2098 12.2969C59.6935 12.6414 61.3864 12.8137 63.2884 12.8137C66.2101 12.8137 68.52 12.543 70.2181 12.0015C71.9197 11.4636 73.21 10.4458 74.089 8.94806C74.089 8.48046 73.9413 7.96188 73.646 7.39232C73.3507 6.82276 73.203 6.50633 73.203 6.44305C73.203 6.30593 73.2962 6.00006 73.4825 5.52542C73.4685 5.36721 73.5001 5.2881 73.5774 5.2881C73.7216 5.2881 73.9413 5.67309 74.2367 6.44305C74.539 7.17785 74.6902 7.67182 74.6902 7.92496C74.8132 8.90236 74.3914 9.93776 73.4245 11.0312C72.4612 12.1281 70.9177 12.9385 68.7942 13.4624C66.9378 13.8245 65.1413 14.0056 63.4044 14.0056C62.0227 14.0056 60.7131 13.937 59.4755 13.7999C57.8125 13.5749 56.5662 13.2461 55.7365 12.8137C55.2478 12.5711 54.7081 12.2072 54.1174 11.722C53.8502 11.4794 53.576 11.2492 53.2947 11.0312C52.8553 10.6374 52.6355 10.3614 52.6355 10.2032ZM71.3203 2.82001C71.3203 2.74969 71.3976 2.60203 71.5523 2.37701C71.707 2.14849 71.8055 2.03422 71.8477 2.03422C71.9074 2.03422 72.0551 2.09575 72.2907 2.2188C72.5438 2.36295 72.6704 2.48073 72.6704 2.57214C72.6704 2.63894 72.5983 2.77957 72.4541 2.99404C72.3241 3.24015 72.2115 3.3632 72.1166 3.3632C72.0322 3.3632 71.8775 3.29288 71.6525 3.15225C71.431 3.01162 71.3203 2.90087 71.3203 2.82001Z" fill="#417F56"/>
<path d="M75.5023 1.43302C75.5902 0.863459 75.7309 0.499572 75.9242 0.341361C75.9559 0.376519 75.9823 0.401129 76.0033 0.415193C76.0948 0.90389 76.2038 1.69495 76.3303 2.78836C76.4569 3.87827 76.5624 4.85918 76.6467 5.7311C76.7346 6.60302 76.7786 7.06359 76.7786 7.11281C76.7786 7.21477 76.7522 7.3765 76.6995 7.59799C76.6503 7.81597 76.5465 7.96364 76.3883 8.04098C76.2758 7.14797 76.1633 6.26023 76.0508 5.37776C75.9418 4.49529 75.8223 3.62688 75.6922 2.77254C75.5656 1.91469 75.5023 1.46818 75.5023 1.43302Z" fill="#417F56"/>
<path d="M76.4569 10.2243C77.4202 10.1645 77.988 10.1136 78.1603 10.0714C78.6701 9.91315 79.1676 9.59849 79.6528 9.12737C80.1415 8.65625 80.4719 8.16052 80.6442 7.64018C80.479 7.35189 80.3208 7.06886 80.1696 6.79111C79.9235 6.32703 79.8004 6.02291 79.8004 5.87876L79.8373 5.76274C79.8514 5.73461 79.8971 5.61859 79.9745 5.41467C80.0342 5.23537 80.0922 5.14571 80.1485 5.14571C80.3137 5.14571 80.5089 5.38655 80.7339 5.86821C80.9624 6.28659 81.0767 6.60126 81.0767 6.81221C81.0767 8.21502 80.6512 9.34535 79.8004 10.2032C79.3996 10.5899 78.9865 10.7833 78.5611 10.7833C78.308 10.7833 77.6663 10.6937 76.6362 10.5144C76.6081 10.4933 76.5483 10.4282 76.4569 10.3192V10.2243Z" fill="#417F56"/>
<path d="M81.0503 10.1346C81.0784 10.1136 81.1312 10.103 81.2085 10.103H81.7411C82.49 10.103 82.998 10.0678 83.2653 9.99753C83.6168 9.88151 84.0475 9.60728 84.5573 9.17483C85.0917 8.73536 85.4204 8.35038 85.5435 8.01989C84.9458 8.01989 84.5485 7.97946 84.3516 7.89859C83.993 7.77906 83.8137 7.47318 83.8137 6.98097C83.8137 6.67158 83.9297 6.32351 84.1618 5.93677C84.4114 5.50433 84.6628 5.2881 84.9159 5.2881C85.1023 5.2881 85.315 5.51487 85.554 5.96841C85.7755 6.31999 85.9232 6.63993 85.997 6.92823H86.2765V8.01989H85.8863C85.8371 8.50859 85.5611 9.05529 85.0583 9.66001C84.545 10.2296 84.051 10.6005 83.5764 10.7728C83.151 10.7025 82.6641 10.6163 82.1156 10.5144C81.4054 10.3561 81.0503 10.2296 81.0503 10.1346ZM84.378 6.72256C84.5433 6.85967 84.7296 6.92823 84.937 6.92823C84.9722 6.92823 85.0161 6.9212 85.0689 6.90714C85.0689 6.79814 85.0425 6.69091 84.9898 6.58544C84.9124 6.44129 84.8263 6.36922 84.7313 6.36922C84.5591 6.36922 84.4413 6.487 84.378 6.72256Z" fill="#417F56"/>
<path d="M86.092 6.92823C86.2713 6.93526 86.5332 6.86319 86.8777 6.71201C87.2223 6.56083 87.428 6.48524 87.4948 6.48524C87.6249 6.48524 87.8499 6.55907 88.1698 6.70673C88.4897 6.8544 88.7464 6.92823 88.9398 6.92823V8.01989C88.7183 8.01989 88.4511 7.93903 88.1382 7.7773C87.8253 7.61557 87.6108 7.53471 87.4948 7.53471C87.442 7.53471 87.261 7.61557 86.9516 7.7773C86.6422 7.93903 86.3873 8.01989 86.1869 8.01989H86.092V6.92823ZM87.3577 3.90639C87.5229 3.42473 87.6741 3.15928 87.8112 3.11006C87.9342 3.17335 88.0678 3.25245 88.212 3.34738C88.3632 3.47043 88.4669 3.58118 88.5231 3.67962C88.4142 4.23512 88.2595 4.51287 88.0591 4.51287C87.9852 4.51287 87.8516 4.43728 87.6583 4.2861C87.5071 4.12789 87.4069 4.00132 87.3577 3.90639ZM86.092 4.39157C86.092 4.22633 86.222 3.95737 86.4822 3.5847C86.8795 3.85893 87.1344 4.0523 87.2469 4.1648V4.20172C87.2469 4.32829 87.2117 4.48298 87.1414 4.66581C87.0606 4.85918 86.9815 4.95586 86.9041 4.95586C86.8162 4.95586 86.658 4.88203 86.4295 4.73436C86.2045 4.5867 86.092 4.47244 86.092 4.39157Z" fill="#417F56"/>
<path d="M88.7025 6.92823C89.2017 6.92823 89.6781 6.87022 90.1316 6.7542C90.8067 6.59599 91.1987 6.36922 91.3077 6.07389C91.4167 5.77856 91.5169 5.59574 91.6083 5.52542C91.6399 5.54652 91.6557 5.59398 91.6557 5.66781C91.6557 5.89634 91.5907 6.20222 91.4606 6.58544C91.559 6.6206 91.6452 6.63818 91.719 6.63818C92.4538 6.63818 92.9654 6.52919 93.2537 6.31121C93.433 6.16706 93.5701 5.92974 93.665 5.59925C93.7564 5.28283 93.8988 5.08595 94.0922 5.0086L94.1186 5.05079C94.1326 5.07188 94.1396 5.09649 94.1396 5.12462C94.1396 5.23361 94.0922 5.4973 93.9973 5.91568C94.0992 6.07389 94.2029 6.17057 94.3084 6.20573C94.34 6.21276 94.4948 6.24792 94.7725 6.31121L95.0467 6.20573C95.0467 6.1319 95.0309 6.05279 94.9993 5.96841C94.9711 5.88052 94.9571 5.81899 94.9571 5.78383C94.9571 5.74164 95.0045 5.5764 95.0995 5.2881C95.2225 4.95762 95.284 4.78183 95.284 4.76073C95.3614 4.76073 95.4405 4.88203 95.5214 5.12462C95.5917 5.31799 95.6268 5.4762 95.6268 5.59925C95.6268 6.02467 95.5512 6.40965 95.4001 6.7542C95.1997 7.20774 94.9114 7.43451 94.5352 7.43451C94.3488 7.43451 94.0324 7.29915 93.5859 7.02843C93.4769 7.29212 93.222 7.49603 92.8212 7.64018C92.5118 7.74214 92.1831 7.79312 91.835 7.79312C91.4905 7.79312 91.1705 7.74214 90.8752 7.64018C90.1932 7.89332 89.5568 8.01989 88.9661 8.01989H88.7025V6.92823Z" fill="#417F56"/>
<path d="M95.4528 10.2243C96.4161 10.1645 96.9839 10.1136 97.1562 10.0714C97.666 9.91315 98.1635 9.59849 98.6487 9.12737C99.1374 8.65625 99.4679 8.16052 99.6401 7.64018C99.4749 7.35189 99.3167 7.06886 99.1655 6.79111C98.9194 6.32703 98.7963 6.02291 98.7963 5.87876L98.8333 5.76274C98.8473 5.73461 98.893 5.61859 98.9704 5.41467C99.0301 5.23537 99.0882 5.14571 99.1444 5.14571C99.3097 5.14571 99.5048 5.38655 99.7298 5.86821C99.9583 6.28659 100.073 6.60126 100.073 6.81221C100.073 8.21502 99.6472 9.34535 98.7963 10.2032C98.3955 10.5899 97.9824 10.7833 97.557 10.7833C97.3039 10.7833 96.6622 10.6937 95.6321 10.5144C95.604 10.4933 95.5442 10.4282 95.4528 10.3192V10.2243Z" fill="#417F56"/>
<path d="M21.3658 37.0521H19.6113C17.365 37.0521 15.4044 36.3609 13.7296 34.9786C12.1612 33.6893 11.0447 31.9613 10.3801 29.7948C10.0877 28.8378 9.44303 28.3593 8.44614 28.3593C7.8613 28.3593 7.36286 28.5586 6.95081 28.9574C6.55206 29.3428 6.35268 29.8214 6.35268 30.3929C6.35268 30.9645 6.55206 31.4562 6.95081 31.8683C7.36286 32.267 7.8613 32.4664 8.44614 32.4664H11.6561V37.0521H8.66546C6.8046 37.0521 5.19629 36.4207 3.84052 35.158C2.49805 33.8953 1.82681 32.3069 1.82681 30.3929C1.82681 28.5719 2.47146 27.0168 3.76077 25.7275C5.05008 24.4382 6.61187 23.7935 8.44614 23.7935C9.86837 23.7935 11.171 24.2321 12.3539 25.1094C13.5369 25.9734 14.3477 27.0899 14.7863 28.4589C15.6104 31.1306 17.2188 32.4664 19.6113 32.4664H21.3658V37.0521Z" fill="#417F56"/>
<path d="M30.0587 20.105H27.7858C27.161 20.105 26.6227 19.8857 26.1708 19.4471C25.7189 18.9952 25.4929 18.4568 25.4929 17.8321C25.4929 17.2074 25.7189 16.6691 26.1708 16.2172C26.6227 15.7652 27.161 15.5393 27.7858 15.5393C28.4105 15.5393 28.9422 15.7652 29.3808 16.2172C29.8327 16.6691 30.0587 17.2074 30.0587 17.8321V20.105ZM37.9141 37.0521H36.1397C34.2921 37.0521 32.5908 36.4872 31.0356 35.3574V37.0521H19.6113V32.4664H26.4699V23.9331H31.0356V26.7842C31.0356 28.4191 31.5075 29.7748 32.4512 30.8515C33.3949 31.9281 34.6244 32.4664 36.1397 32.4664H37.9141V37.0521Z" fill="#417F56"/>
<path d="M54.303 37.0521H52.5285C50.681 37.0521 48.9796 36.4872 47.4244 35.3574V37.0521H36.0001V32.4664H42.8587V23.9331H47.4244V26.7842C47.4244 28.4191 47.8963 29.7748 48.84 30.8515C49.7838 31.9281 51.0132 32.4664 52.5285 32.4664H54.303V37.0521ZM50.5547 45.1668H48.2419C47.6172 45.1668 47.0789 44.9408 46.6269 44.4889C46.1883 44.037 45.969 43.4986 45.969 42.8739C45.969 42.2359 46.1883 41.6976 46.6269 41.259C47.0789 40.8203 47.6172 40.601 48.2419 40.601C48.8799 40.601 49.4249 40.8203 49.8768 41.259C50.3287 41.6976 50.5547 42.2359 50.5547 42.8739V45.1668ZM45.3709 45.1668H43.078C42.44 45.1668 41.895 44.9408 41.4431 44.4889C41.0045 44.037 40.7852 43.4986 40.7852 42.8739C40.7852 42.2359 41.0045 41.6976 41.4431 41.259C41.895 40.8203 42.44 40.601 43.078 40.601C43.7027 40.601 44.2411 40.8203 44.693 41.259C45.1449 41.6976 45.3709 42.2359 45.3709 42.8739V45.1668Z" fill="#417F56"/>
<path d="M75.0382 37.0521H52.3889V32.4664H70.2133C69.8278 31.2967 69.1367 30.3397 68.1398 29.5954C67.1562 28.851 66.0264 28.4789 64.7504 28.4789L57.9516 28.4988V23.9331H64.7504C67.5815 23.9331 70.0006 24.9366 72.0077 26.9437C74.028 28.9374 75.0382 31.3566 75.0382 34.201V37.0521ZM63.3547 21.5804H61.0818C60.4571 21.5804 59.9188 21.3611 59.4668 20.9225C59.0149 20.4705 58.789 19.9322 58.789 19.3075C58.789 18.6828 59.0149 18.1445 59.4668 17.6926C59.9188 17.2406 60.4571 17.0147 61.0818 17.0147C61.7065 17.0147 62.2382 17.2406 62.6768 17.6926C63.1287 18.1445 63.3547 18.6828 63.3547 19.3075V21.5804Z" fill="#417F56"/>
<path d="M89.4822 37.0521H87.7078C85.8735 37.0521 84.1721 36.4872 82.6037 35.3574V36.454C82.6037 39.325 81.5669 41.7508 79.4934 43.7313C77.4332 45.725 74.8546 46.7219 71.7576 46.7219V42.1562C73.6051 42.1562 75.1138 41.6046 76.2834 40.5013C77.4664 39.3981 78.0579 38.049 78.0579 36.454V23.9331H82.6037V26.7842C82.6037 28.4191 83.0756 29.7748 84.0193 30.8515C84.9763 31.9281 86.2058 32.4664 87.7078 32.4664H89.4822V37.0521Z" fill="#417F56"/>
<path d="M99.1321 37.0521H87.7078V32.4664H94.5663V23.9331H99.1321V37.0521ZM99.3315 19.786H97.0187C96.394 19.786 95.8557 19.5601 95.4037 19.1081C94.9651 18.6562 94.7458 18.1179 94.7458 17.4932C94.7458 16.8552 94.9651 16.3168 95.4037 15.8782C95.8557 15.4396 96.394 15.2203 97.0187 15.2203C97.6567 15.2203 98.2017 15.4396 98.6536 15.8782C99.1055 16.3168 99.3315 16.8552 99.3315 17.4932V19.786ZM94.1477 19.786H91.8548C91.2168 19.786 90.6718 19.5601 90.2199 19.1081C89.7813 18.6562 89.562 18.1179 89.562 17.4932C89.562 16.8552 89.7813 16.3168 90.2199 15.8782C90.6718 15.4396 91.2168 15.2203 91.8548 15.2203C92.4795 15.2203 93.0179 15.4396 93.4698 15.8782C93.9217 16.3168 94.1477 16.8552 94.1477 17.4932V19.786Z" fill="#417F56"/>
</svg>
